<svg width="53" height="53" viewBox="0 0 53 53" fill="none" xmlns="http://www.w3.org/2000/svg">
<path d="M21.4267 26.1448C14.2012 24.7886 9.38467 17.9022 10.7076 10.8191C11.2157 8.0992 12.5484 5.76869 14.3745 4C8.8066 5.30099 4.33858 9.68232 3.24845 15.5188C1.75614 23.5085 7.13928 31.2051 15.2897 32.7349C22.5152 34.0911 29.4794 30.1196 32 23.6718C29.1326 25.8903 25.2996 26.8717 21.4267 26.1448Z" fill="url(#paint0_linear_2_527)"/>
<g filter="url(#filter0_bdii_2_527)">
<path d="M26.5 36C33.4035 36 38.9999 30.4036 38.9999 23.5C38.9999 16.5964 33.4035 11 26.5 11C19.5964 11 14 16.5964 14 23.5C14 30.4036 19.5964 36 26.5 36Z" fill="#8338EC" fill-opacity="0.15" shape-rendering="crispEdges"/>
</g>
<path d="M26.4999 13V14.9051" stroke="#8338EC" stroke-miterlimit="10"/>
<path d="M33.9429 16.057L32.6138 17.4304" stroke="#8338EC" stroke-miterlimit="10"/>
<path d="M36.9999 23.5H35.1392" stroke="#8338EC" stroke-miterlimit="10"/>
<path d="M33.9429 30.943L32.6138 29.6139" stroke="#8338EC" stroke-miterlimit="10"/>
<path d="M26.4999 33.9999V32.1392" stroke="#8338EC" stroke-miterlimit="10"/>
<path d="M19.0569 30.943L20.4303 29.6139" stroke="#8338EC" stroke-miterlimit="10"/>
<path d="M16 23.5H17.9051" stroke="#8338EC" stroke-miterlimit="10"/>
<path d="M19.0569 16.057L20.4303 17.4304" stroke="#8338EC" stroke-miterlimit="10"/>
<path d="M29.4557 15L26.6006 24.4403L21.4557 20.5" stroke="#8338EC" stroke-width="1.2" stroke-miterlimit="10" stroke-linecap="round"/>
<defs>
<filter id="filter0_bdii_2_527" x="0" y="7.62939e-06" width="52.9999" height="53" filterUnits="userSpaceOnUse" color-interpolation-filters="sRGB">
<feFlood flood-opacity="0" result="BackgroundImageFix"/>
<feGaussianBlur in="BackgroundImage" stdDeviation="3.5"/>
<feComposite in2="SourceAlpha" operator="in" result="effect1_backgroundBlur_2_527"/>
<feColorMatrix in="SourceAlpha" type="matrix" values="0 0 0 0 0 0 0 0 0 0 0 0 0 0 0 0 0 0 127 0" result="hardAlpha"/>
<feOffset dy="3"/>
<feGaussianBlur stdDeviation="7"/>
<feComposite in2="hardAlpha" operator="out"/>
<feColorMatrix type="matrix" values="0 0 0 0 0 0 0 0 0 0 0 0 0 0 0 0 0 0 0.07 0"/>
<feBlend mode="normal" in2="effect1_backgroundBlur_2_527" result="effect2_dropShadow_2_527"/>
<feBlend mode="normal" in="SourceGraphic" in2="effect2_dropShadow_2_527" result="shape"/>
<feColorMatrix in="SourceAlpha" type="matrix" values="0 0 0 0 0 0 0 0 0 0 0 0 0 0 0 0 0 0 127 0" result="hardAlpha"/>
<feOffset dx="-0.3" dy="-0.3"/>
<feGaussianBlur stdDeviation="0.15"/>
<feComposite in2="hardAlpha" operator="arithmetic" k2="-1" k3="1"/>
<feColorMatrix type="matrix" values="0 0 0 0 0.513726 0 0 0 0 0.219608 0 0 0 0 0.92549 0 0 0 0.15 0"/>
<feBlend mode="normal" in2="shape" result="effect3_innerShadow_2_527"/>
<feColorMatrix in="SourceAlpha" type="matrix" values="0 0 0 0 0 0 0 0 0 0 0 0 0 0 0 0 0 0 127 0" result="hardAlpha"/>
<feOffset dx="0.3" dy="0.3"/>
<feGaussianBlur stdDeviation="0.15"/>
<feComposite in2="hardAlpha" operator="arithmetic" k2="-1" k3="1"/>
<feColorMatrix type="matrix" values="0 0 0 0 1 0 0 0 0 1 0 0 0 0 1 0 0 0 0.65 0"/>
<feBlend mode="normal" in2="effect3_innerShadow_2_527" result="effect4_innerShadow_2_527"/>
</filter>
<linearGradient id="paint0_linear_2_527" x1="6.18755" y1="5.54332" x2="29.8069" y2="32.6769" gradientUnits="userSpaceOnUse">
<stop offset="0.393651" stop-color="#FFCA46"/>
<stop offset="1" stop-color="#FF9B06"/>
</linearGradient>
</defs>
</svg>
