<svg width="20" height="20" viewBox="0 0 20 20" fill="none" xmlns="http://www.w3.org/2000/svg">
<g clip-path="url(#clip0_2_243)">
<path d="M8.38759 5.23883C8.38731 6.36822 8.68342 7.47791 9.24635 8.457C9.80927 9.4361 10.6193 10.2503 11.5955 10.8183C12.5716 11.3863 13.6798 11.6881 14.8091 11.6937C15.9385 11.6993 17.0496 11.4083 18.0313 10.85C17.6433 14.943 14.1956 18.1455 10.0009 18.1455C5.54571 18.1455 1.93426 14.5341 1.93426 10.0788C1.93426 5.88417 5.13673 2.43647 9.22975 2.04847C8.67602 3.02045 8.38572 4.12019 8.38759 5.23883ZM3.54759 10.0788C3.54759 11.7904 4.2275 13.4318 5.43773 14.642C6.64796 15.8523 8.28939 16.5322 10.0009 16.5322C11.1411 16.5321 12.261 16.2302 13.2467 15.657C14.2324 15.0839 15.0488 14.2601 15.6129 13.2692C15.358 13.2934 15.0999 13.3055 14.8409 13.3055C10.3857 13.3055 6.77426 9.69405 6.77426 5.23883C6.77426 4.97989 6.78636 4.72257 6.81056 4.46685C5.81968 5.03097 4.99582 5.84737 4.42271 6.83307C3.8496 7.81877 3.54766 8.93863 3.54759 10.0788ZM14.9732 2.24691L15.6476 2.4155V3.22217L14.9732 3.39076C14.6896 3.46169 14.4306 3.60836 14.2238 3.81509C14.0171 4.02182 13.8705 4.28084 13.7995 4.56446L13.6309 5.23883H12.8243L12.6557 4.56446C12.5847 4.28084 12.4381 4.02182 12.2313 3.81509C12.0246 3.60836 11.7656 3.46169 11.482 3.39076L10.8076 3.22217V2.4155L11.482 2.24691C11.7654 2.17585 12.0243 2.02912 12.2309 1.8224C12.4374 1.61568 12.584 1.35673 12.6549 1.07321L12.8243 0.398834H13.6309L13.7995 1.07321C13.8705 1.35683 14.0171 1.61585 14.2238 1.82258C14.4306 2.02931 14.6896 2.17597 14.9732 2.24691ZM19.0065 6.28024L19.6809 6.44883V7.2555L19.0065 7.42409C18.7229 7.49503 18.4639 7.64169 18.2572 7.84842C18.0505 8.05515 17.9038 8.31417 17.8329 8.59779L17.6643 9.27217H16.8576L16.689 8.59779C16.6181 8.31417 16.4714 8.05515 16.2647 7.84842C16.0579 7.64169 15.7989 7.49503 15.5153 7.42409L14.8409 7.2555V6.44883L15.5153 6.28024C15.7989 6.20931 16.0579 6.06264 16.2647 5.85591C16.4714 5.64918 16.6181 5.39016 16.689 5.10654L16.8576 4.43217H17.6643L17.8329 5.10654C17.9038 5.39016 18.0505 5.64918 18.2572 5.85591C18.4639 6.06264 18.7229 6.20931 19.0065 6.28024Z" fill="white"/>
</g>
<defs>
<clipPath id="clip0_2_243">
<rect width="19.36" height="19.36" fill="white" transform="translate(0.321243 0.398895)"/>
</clipPath>
</defs>
</svg>
