<svg width="21" height="20" viewBox="0 0 21 20" fill="none" xmlns="http://www.w3.org/2000/svg">
<g clip-path="url(#clip0_2_239)">
<path d="M10.3226 15.1609C9.03898 15.1609 7.80791 14.651 6.90023 13.7433C5.99256 12.8356 5.48263 11.6046 5.48263 10.3209C5.48263 9.03726 5.99256 7.80618 6.90023 6.89851C7.80791 5.99083 9.03898 5.4809 10.3226 5.4809C11.6063 5.4809 12.8373 5.99083 13.745 6.89851C14.6527 7.80618 15.1626 9.03726 15.1626 10.3209C15.1626 11.6046 14.6527 12.8356 13.745 13.7433C12.8373 14.651 11.6063 15.1609 10.3226 15.1609ZM10.3226 13.5476C11.1784 13.5476 11.9991 13.2076 12.6042 12.6025C13.2093 11.9974 13.5493 11.1767 13.5493 10.3209C13.5493 9.46514 13.2093 8.64442 12.6042 8.03931C11.9991 7.43419 11.1784 7.09424 10.3226 7.09424C9.46686 7.09424 8.64615 7.43419 8.04103 8.03931C7.43591 8.64442 7.09596 9.46514 7.09596 10.3209C7.09596 11.1767 7.43591 11.9974 8.04103 12.6025C8.64615 13.2076 9.46686 13.5476 10.3226 13.5476ZM9.51596 1.44757H11.1293V3.86757H9.51596V1.44757ZM9.51596 16.7742H11.1293V19.1942H9.51596V16.7742ZM3.47806 4.61696L4.61869 3.47634L6.32963 5.18728L5.189 6.3279L3.47806 4.61777V4.61696ZM14.3156 15.4545L15.4563 14.3139L17.1672 16.0248L16.0266 17.1655L14.3156 15.4545ZM16.0266 3.47553L17.1672 4.61696L15.4563 6.3279L14.3156 5.18728L16.0266 3.47634V3.47553ZM5.189 14.3139L6.32963 15.4545L4.61869 17.1655L3.47806 16.0248L5.189 14.3139ZM19.196 9.51424V11.1276H16.776V9.51424H19.196ZM3.86929 9.51424V11.1276H1.4493V9.51424H3.86929Z" fill="white"/>
</g>
<defs>
<clipPath id="clip0_2_239">
<rect width="19.36" height="19.36" fill="white" transform="translate(0.642853 0.640915)"/>
</clipPath>
</defs>
</svg>
