<svg width="158" height="157" viewBox="0 0 158 157" fill="none" xmlns="http://www.w3.org/2000/svg">
<line x1="72.828" y1="0.627233" x2="73.3649" y2="6.76379" stroke="#E9E9E9" stroke-width="1.314"/>
<line x1="85.9423" y1="150.535" x2="86.4792" y2="156.672" stroke="#E9E9E9" stroke-width="1.314"/>
<line x1="66.0456" y1="1.46118" x2="67.1153" y2="7.5276" stroke="#E9E9E9" stroke-width="1.314"/>
<line x1="92.1781" y1="149.654" x2="93.2477" y2="155.721" stroke="#E9E9E9" stroke-width="1.314"/>
<line x1="59.3622" y1="2.8846" x2="60.9566" y2="8.8347" stroke="#E9E9E9" stroke-width="1.314"/>
<line x1="98.3088" y1="148.237" x2="99.9031" y2="154.187" stroke="#E9E9E9" stroke-width="1.314"/>
<line x1="52.831" y1="4.88419" x2="54.9379" y2="10.6727" stroke="#E9E9E9" stroke-width="1.314"/>
<line x1="104.297" y1="146.289" x2="106.404" y2="152.077" stroke="#E9E9E9" stroke-width="1.314"/>
<line x1="46.4952" y1="7.44469" x2="49.0986" y2="13.0275" stroke="#E9E9E9" stroke-width="1.314"/>
<line x1="110.091" y1="143.826" x2="112.694" y2="149.409" stroke="#E9E9E9" stroke-width="1.314"/>
<line x1="34.6147" y1="14.1715" x2="38.1479" y2="19.2174" stroke="#E9E9E9" stroke-width="1.314"/>
<line x1="120.927" y1="137.435" x2="124.46" y2="142.481" stroke="#E9E9E9" stroke-width="1.314"/>
<line x1="29.1587" y1="18.2855" x2="33.1183" y2="23.0043" stroke="#E9E9E9" stroke-width="1.314"/>
<line x1="125.885" y1="133.56" x2="129.845" y2="138.278" stroke="#E9E9E9" stroke-width="1.314"/>
<line x1="24.0834" y1="22.858" x2="28.4392" y2="27.2138" stroke="#E9E9E9" stroke-width="1.314"/>
<line x1="130.489" y1="129.265" x2="134.845" y2="133.621" stroke="#E9E9E9" stroke-width="1.314"/>
<line x1="19.4245" y1="27.8578" x2="24.1433" y2="31.8174" stroke="#E9E9E9" stroke-width="1.314"/>
<line x1="134.698" y1="124.583" x2="139.417" y2="128.542" stroke="#E9E9E9" stroke-width="1.314"/>
<line x1="15.2214" y1="33.2401" x2="20.2674" y2="36.7733" stroke="#E9E9E9" stroke-width="1.314"/>
<line x1="138.487" y1="119.554" x2="143.533" y2="123.088" stroke="#E9E9E9" stroke-width="1.314"/>
<line x1="8.29432" y1="45.0081" x2="13.8772" y2="47.6114" stroke="#E9E9E9" stroke-width="1.314"/>
<line x1="144.676" y1="108.604" x2="150.259" y2="111.207" stroke="#E9E9E9" stroke-width="1.314"/>
<line x1="5.62597" y1="51.3" x2="11.4145" y2="53.4068" stroke="#E9E9E9" stroke-width="1.314"/>
<line x1="147.032" y1="102.764" x2="152.821" y2="104.871" stroke="#E9E9E9" stroke-width="1.314"/>
<line x1="3.51704" y1="57.7968" x2="9.46715" y2="59.3911" stroke="#E9E9E9" stroke-width="1.314"/>
<line x1="148.869" y1="96.7453" x2="154.819" y2="98.3396" stroke="#E9E9E9" stroke-width="1.314"/>
<line x1="1.98367" y1="64.4533" x2="8.05008" y2="65.523" stroke="#E9E9E9" stroke-width="1.314"/>
<line x1="150.177" y1="90.5858" x2="156.243" y2="91.6554" stroke="#E9E9E9" stroke-width="1.314"/>
<line x1="1.03411" y1="71.2188" x2="7.17067" y2="71.7557" stroke="#E9E9E9" stroke-width="1.314"/>
<line x1="150.94" y1="84.3312" x2="157.077" y2="84.868" stroke="#E9E9E9" stroke-width="1.314"/>
<line x1="0.919591" y1="84.8707" x2="7.05615" y2="84.3338" stroke="#E9E9E9" stroke-width="1.314"/>
<line x1="150.826" y1="71.7564" x2="156.962" y2="71.2195" stroke="#E9E9E9" stroke-width="1.314"/>
<line x1="1.7555" y1="91.6551" x2="7.82191" y2="90.5854" stroke="#E9E9E9" stroke-width="1.314"/>
<line x1="149.949" y1="65.5266" x2="156.015" y2="64.4569" stroke="#E9E9E9" stroke-width="1.314"/>
<line x1="3.17696" y1="98.3345" x2="9.12706" y2="96.7402" stroke="#E9E9E9" stroke-width="1.314"/>
<line x1="148.529" y1="59.388" x2="154.479" y2="57.7936" stroke="#E9E9E9" stroke-width="1.314"/>
<line x1="5.17655" y1="104.87" x2="10.9651" y2="102.763" stroke="#E9E9E9" stroke-width="1.314"/>
<line x1="146.583" y1="53.4033" x2="152.371" y2="51.2965" stroke="#E9E9E9" stroke-width="1.314"/>
<line x1="7.739" y1="111.203" x2="13.3219" y2="108.6" stroke="#E9E9E9" stroke-width="1.314"/>
<line x1="144.121" y1="47.6058" x2="149.703" y2="45.0025" stroke="#E9E9E9" stroke-width="1.314"/>
<line x1="7.74096" y1="111.203" x2="13.3238" y2="108.6" stroke="#E9E9E9" stroke-width="1.314"/>
<line x1="144.121" y1="47.6098" x2="149.703" y2="45.0064" stroke="#E9E9E9" stroke-width="1.314"/>
<line x1="14.4677" y1="123.086" x2="19.5137" y2="119.553" stroke="#E9E9E9" stroke-width="1.314"/>
<line x1="137.733" y1="36.7737" x2="142.779" y2="33.2405" stroke="#E9E9E9" stroke-width="1.314"/>
<line x1="18.5818" y1="128.542" x2="23.3006" y2="124.582" stroke="#E9E9E9" stroke-width="1.314"/>
<line x1="133.856" y1="31.8152" x2="138.575" y2="27.8557" stroke="#E9E9E9" stroke-width="1.314"/>
<line x1="23.1523" y1="133.615" x2="27.5081" y2="129.26" stroke="#E9E9E9" stroke-width="1.314"/>
<line x1="129.56" y1="27.2098" x2="133.916" y2="22.854" stroke="#E9E9E9" stroke-width="1.314"/>
<line x1="28.1521" y1="138.272" x2="32.1117" y2="133.553" stroke="#E9E9E9" stroke-width="1.314"/>
<line x1="124.877" y1="22.9983" x2="128.836" y2="18.2795" stroke="#E9E9E9" stroke-width="1.314"/>
<line x1="33.5383" y1="142.477" x2="37.0716" y2="137.431" stroke="#E9E9E9" stroke-width="1.314"/>
<line x1="119.851" y1="19.2139" x2="123.384" y2="14.1679" stroke="#E9E9E9" stroke-width="1.314"/>
<line x1="33.5383" y1="142.481" x2="37.0716" y2="137.435" stroke="#E9E9E9" stroke-width="1.314"/>
<line x1="119.851" y1="19.2139" x2="123.384" y2="14.1679" stroke="#E9E9E9" stroke-width="1.314"/>
<line x1="45.3044" y1="149.406" x2="47.9077" y2="143.824" stroke="#E9E9E9" stroke-width="1.314"/>
<line x1="108.9" y1="13.0208" x2="111.503" y2="7.43796" stroke="#E9E9E9" stroke-width="1.314"/>
<line x1="51.5963" y1="152.073" x2="53.7031" y2="146.284" stroke="#E9E9E9" stroke-width="1.314"/>
<line x1="103.063" y1="10.6663" x2="105.169" y2="4.87784" stroke="#E9E9E9" stroke-width="1.314"/>
<line x1="58.093" y1="154.184" x2="59.6873" y2="148.234" stroke="#E9E9E9" stroke-width="1.314"/>
<line x1="97.0396" y1="8.82764" x2="98.6339" y2="2.87754" stroke="#E9E9E9" stroke-width="1.314"/>
<line x1="64.7496" y1="155.717" x2="65.8193" y2="149.651" stroke="#E9E9E9" stroke-width="1.314"/>
<line x1="90.8821" y1="7.5239" x2="91.9517" y2="1.45748" stroke="#E9E9E9" stroke-width="1.314"/>
<line x1="71.5171" y1="156.665" x2="72.0539" y2="150.528" stroke="#E9E9E9" stroke-width="1.314"/>
<line x1="84.6314" y1="6.75666" x2="85.1682" y2="0.620099" stroke="#E9E9E9" stroke-width="1.314"/>
<line x1="40.5979" y1="10.4393" x2="43.0979" y2="14.7695" stroke="black" stroke-width="1.752"/>
<line x1="116.516" y1="141.47" x2="119.016" y2="145.801" stroke="black" stroke-width="1.752"/>
<line x1="11.6098" y1="38.7861" x2="15.9399" y2="41.2861" stroke="black" stroke-width="1.752"/>
<line x1="142.641" y1="114.706" x2="146.971" y2="117.206" stroke="black" stroke-width="1.752"/>
<line x1="0.678619" y1="77.8272" x2="5.67862" y2="77.8272" stroke="black" stroke-width="1.752"/>
<line x1="152" y1="77.8271" x2="157" y2="77.8271" stroke="black" stroke-width="1.752"/>
<line x1="10.7357" y1="117.105" x2="15.0659" y2="114.605" stroke="black" stroke-width="1.752"/>
<line x1="141.767" y1="42.185" x2="146.097" y2="39.685" stroke="black" stroke-width="1.752"/>
<line x1="39.0806" y1="146.093" x2="41.5806" y2="141.763" stroke="black" stroke-width="1.752"/>
<line x1="115.003" y1="15.0619" x2="117.503" y2="10.7318" stroke="black" stroke-width="1.752"/>
<line x1="79.8735" y1="0.676651" x2="79.8735" y2="5.67665" stroke="black" stroke-width="1.752"/>
<line x1="79.8735" y1="152" x2="79.8735" y2="157" stroke="black" stroke-width="1.752"/>
<path d="M67.384 22.4813V15.9943L65.9311 16.8789V15.6298L67.384 14.7613H68.5259V22.4813H67.384ZM70.3474 22.4759L70.3527 21.4788L73.7141 18.4658C73.9858 18.2264 74.1698 17.9976 74.2663 17.7796C74.3664 17.5616 74.4165 17.3436 74.4165 17.1255C74.4165 16.8503 74.3557 16.6037 74.2342 16.3857C74.1127 16.1641 73.9447 15.989 73.7302 15.8603C73.5158 15.7316 73.2692 15.6673 72.9904 15.6673C72.7045 15.6673 72.4489 15.7352 72.2238 15.871C72.0022 16.0033 71.8288 16.1802 71.7037 16.4018C71.5786 16.6234 71.5179 16.8628 71.5214 17.1202H70.3742C70.3742 16.6198 70.4868 16.182 70.7119 15.8067C70.9407 15.4278 71.2534 15.133 71.6501 14.9221C72.0468 14.7077 72.5007 14.6004 73.0118 14.6004C73.4979 14.6004 73.934 14.7112 74.32 14.9328C74.706 15.1509 75.0097 15.4511 75.2313 15.8335C75.4565 16.2159 75.5691 16.652 75.5691 17.1416C75.5691 17.4955 75.5226 17.7957 75.4297 18.0423C75.3368 18.2889 75.1974 18.5176 75.0115 18.7285C74.8257 18.9394 74.5934 19.1681 74.3146 19.4147L71.7198 21.7307L71.5965 21.4091H75.5691V22.4759H70.3474ZM78.49 22.6421C78.0611 22.6421 77.7019 22.5635 77.4124 22.4062C77.1229 22.2454 76.9031 22.0345 76.753 21.7736C76.6064 21.5091 76.5332 21.2196 76.5332 20.9051C76.5332 20.612 76.585 20.3547 76.6886 20.1331C76.7923 19.9115 76.946 19.7239 77.1497 19.5702C77.3534 19.4129 77.6036 19.2861 77.9003 19.1896C78.1576 19.1145 78.4489 19.0484 78.7741 18.9912C79.0994 18.934 79.4407 18.8804 79.7981 18.8304C80.1591 18.7803 80.5165 18.7303 80.8703 18.6803L80.4629 18.9054C80.47 18.4515 80.3735 18.1156 80.1734 17.8975C79.9768 17.6759 79.6373 17.5651 79.1548 17.5651C78.851 17.5651 78.5722 17.6366 78.3184 17.7796C78.0647 17.919 77.8877 18.1513 77.7877 18.4765L76.7423 18.1549C76.8852 17.6581 77.1568 17.2631 77.5571 16.9701C77.961 16.677 78.4971 16.5305 79.1655 16.5305C79.6837 16.5305 80.1341 16.6198 80.5165 16.7985C80.9025 16.9736 81.1848 17.2524 81.3635 17.6348C81.4565 17.8243 81.5137 18.0244 81.5351 18.2353C81.5565 18.4462 81.5673 18.6731 81.5673 18.9161V22.4813H80.5755V21.1571L80.7685 21.3287C80.529 21.7718 80.2234 22.1024 79.8517 22.3205C79.4836 22.5349 79.0297 22.6421 78.49 22.6421ZM78.6883 21.7254C79.0064 21.7254 79.2799 21.67 79.5086 21.5592C79.7373 21.4448 79.9214 21.3001 80.0608 21.1249C80.2002 20.9498 80.2913 20.7675 80.3342 20.5781C80.395 20.4065 80.4289 20.2135 80.4361 19.9991C80.4468 19.7846 80.4522 19.6131 80.4522 19.4844L80.8167 19.6185C80.4629 19.6721 80.1412 19.7203 79.8517 19.7632C79.5622 19.8061 79.2995 19.849 79.0636 19.8919C78.8313 19.9312 78.624 19.9794 78.4417 20.0366C78.288 20.0902 78.1504 20.1546 78.0289 20.2296C77.911 20.3047 77.8163 20.3958 77.7448 20.503C77.6769 20.6103 77.6429 20.7407 77.6429 20.8944C77.6429 21.0445 77.6805 21.1839 77.7555 21.3126C77.8306 21.4377 77.9449 21.5377 78.0986 21.6128C78.2523 21.6878 78.4489 21.7254 78.6883 21.7254ZM89.8967 22.4813L89.902 18.8733C89.902 18.4551 89.7948 18.1299 89.5804 17.8975C89.3659 17.6616 89.0836 17.5437 88.7333 17.5437C88.5189 17.5437 88.3223 17.5937 88.1436 17.6938C87.9685 17.7903 87.8255 17.9369 87.7147 18.1334C87.6075 18.3264 87.5539 18.5695 87.5539 18.8625L87.0124 18.5891C87.0053 18.1817 87.091 17.8243 87.2697 17.5169C87.452 17.2095 87.6986 16.9718 88.0096 16.8039C88.3205 16.6323 88.669 16.5465 89.055 16.5465C89.6805 16.5465 90.1647 16.7342 90.5079 17.1095C90.851 17.4847 91.0225 17.9833 91.0225 18.6052L91.0172 22.4813H89.8967ZM82.954 22.4813V16.6913H83.9512V18.364H84.0799V22.4813H82.954ZM86.428 22.4813L86.4334 18.8947C86.4334 18.473 86.3262 18.1424 86.1117 17.9029C85.9009 17.6634 85.6167 17.5437 85.2593 17.5437C84.9055 17.5437 84.6196 17.6652 84.4015 17.9083C84.1871 18.1513 84.0799 18.4694 84.0799 18.8625L83.5438 18.5194C83.5438 18.1406 83.6349 17.8028 83.8172 17.5062C83.9995 17.2095 84.2461 16.9754 84.557 16.8039C84.868 16.6323 85.22 16.5465 85.6132 16.5465C86.0242 16.5465 86.3744 16.6341 86.6639 16.8092C86.9534 16.9808 87.1732 17.222 87.3233 17.533C87.477 17.8439 87.5539 18.2049 87.5539 18.6159L87.5485 22.4813H86.428Z" fill="#939295"/>
<path d="M67.5944 143.961V137.474L66.1416 138.359V137.11L67.5944 136.241H68.7364V143.961H67.5944ZM70.5578 143.956L70.5632 142.959L73.9246 139.946C74.1962 139.706 74.3803 139.478 74.4768 139.26C74.5768 139.041 74.6269 138.823 74.6269 138.605C74.6269 138.33 74.5661 138.084 74.4446 137.866C74.3231 137.644 74.1551 137.469 73.9407 137.34C73.7262 137.212 73.4796 137.147 73.2008 137.147C72.9149 137.147 72.6593 137.215 72.4342 137.351C72.2126 137.483 72.0392 137.66 71.9142 137.882C71.7891 138.103 71.7283 138.343 71.7319 138.6H70.5846C70.5846 138.1 70.6972 137.662 70.9223 137.287C71.1511 136.908 71.4638 136.613 71.8605 136.402C72.2573 136.188 72.7112 136.08 73.2223 136.08C73.7083 136.08 74.1444 136.191 74.5304 136.413C74.9164 136.631 75.2202 136.931 75.4418 137.313C75.6669 137.696 75.7795 138.132 75.7795 138.622C75.7795 138.975 75.7331 139.276 75.6401 139.522C75.5472 139.769 75.4078 139.998 75.222 140.208C75.0361 140.419 74.8038 140.648 74.525 140.895L71.9302 143.211L71.8069 142.889H75.7795V143.956H70.5578ZM79.7834 144.122C79.2294 144.122 78.7647 143.988 78.3895 143.72C78.0142 143.448 77.73 143.082 77.537 142.621C77.344 142.16 77.2475 141.64 77.2475 141.061C77.2475 140.482 77.3423 139.962 77.5317 139.501C77.7247 139.04 78.007 138.677 78.3787 138.412C78.754 138.144 79.2151 138.01 79.7619 138.01C80.3052 138.01 80.7734 138.144 81.1665 138.412C81.5632 138.677 81.8688 139.04 82.0833 139.501C82.2977 139.958 82.4049 140.478 82.4049 141.061C82.4049 141.64 82.2977 142.162 82.0833 142.626C81.8724 143.087 81.5704 143.452 81.1772 143.72C80.7877 143.988 80.323 144.122 79.7834 144.122ZM77.0599 146.535V138.171H78.0571V142.337H78.1857V146.535H77.0599ZM79.6279 143.109C79.9853 143.109 80.2802 143.018 80.5125 142.835C80.7484 142.653 80.9235 142.408 81.0379 142.101C81.1558 141.79 81.2148 141.443 81.2148 141.061C81.2148 140.682 81.1558 140.339 81.0379 140.032C80.9235 139.724 80.7466 139.479 80.5071 139.297C80.2676 139.115 79.9621 139.024 79.5904 139.024C79.2401 139.024 78.9506 139.109 78.7219 139.281C78.4967 139.453 78.3287 139.692 78.2179 139.999C78.1107 140.307 78.0571 140.661 78.0571 141.061C78.0571 141.461 78.1107 141.815 78.2179 142.122C78.3251 142.43 78.4949 142.671 78.7272 142.846C78.9595 143.021 79.2598 143.109 79.6279 143.109ZM90.5259 143.961L90.5313 140.353C90.5313 139.935 90.4241 139.61 90.2096 139.377C89.9952 139.142 89.7128 139.024 89.3626 139.024C89.1481 139.024 88.9516 139.074 88.7729 139.174C88.5977 139.27 88.4548 139.417 88.344 139.613C88.2368 139.806 88.1831 140.049 88.1831 140.342L87.6417 140.069C87.6345 139.662 87.7203 139.304 87.899 138.997C88.0813 138.689 88.3279 138.452 88.6388 138.284C88.9498 138.112 89.2983 138.026 89.6843 138.026C90.3097 138.026 90.794 138.214 91.1371 138.589C91.4802 138.965 91.6518 139.463 91.6518 140.085L91.6464 143.961H90.5259ZM83.5833 143.961V138.171H84.5805V139.844H84.7091V143.961H83.5833ZM87.0573 143.961L87.0627 140.375C87.0627 139.953 86.9554 139.622 86.741 139.383C86.5301 139.143 86.246 139.024 85.8886 139.024C85.5347 139.024 85.2488 139.145 85.0308 139.388C84.8164 139.631 84.7091 139.949 84.7091 140.342L84.173 139.999C84.173 139.62 84.2642 139.283 84.4464 138.986C84.6287 138.689 84.8753 138.455 85.1863 138.284C85.4972 138.112 85.8493 138.026 86.2424 138.026C86.6534 138.026 87.0037 138.114 87.2932 138.289C87.5827 138.461 87.8025 138.702 87.9526 139.013C88.1063 139.324 88.1831 139.685 88.1831 140.096L88.1778 143.961H87.0573Z" fill="#939295"/>
<path d="M125.353 81.5407C124.853 81.5407 124.403 81.4227 124.002 81.1869C123.602 80.9474 123.284 80.6204 123.048 80.2058C122.816 79.7912 122.7 79.3194 122.7 78.7904V76.3297C122.7 75.7685 122.816 75.2753 123.048 74.85C123.284 74.4247 123.609 74.0941 124.024 73.8582C124.442 73.6223 124.923 73.5044 125.466 73.5044C125.873 73.5044 126.256 73.5812 126.613 73.7349C126.971 73.8886 127.28 74.1173 127.541 74.4211L126.72 75.1878C126.574 74.9983 126.39 74.8482 126.168 74.7374C125.95 74.6231 125.716 74.5659 125.466 74.5659C125.144 74.5659 124.862 74.6427 124.619 74.7964C124.376 74.9465 124.185 75.1449 124.045 75.3915C123.909 75.6381 123.842 75.9026 123.842 76.1849V77.6003L123.622 77.3537C123.843 77.0642 124.119 76.8354 124.447 76.6674C124.776 76.4994 125.128 76.4155 125.504 76.4155C125.982 76.4155 126.41 76.528 126.785 76.7532C127.164 76.9748 127.46 77.2768 127.675 77.6592C127.893 78.0417 128.002 78.4723 128.002 78.9513C128.002 79.4338 127.88 79.8716 127.637 80.2647C127.398 80.6543 127.076 80.9653 126.672 81.1976C126.272 81.4263 125.832 81.5407 125.353 81.5407ZM125.353 80.4631C125.632 80.4631 125.886 80.3952 126.115 80.2594C126.343 80.1236 126.526 79.9413 126.662 79.7125C126.797 79.4838 126.865 79.23 126.865 78.9513C126.865 78.6725 126.797 78.4187 126.662 78.19C126.529 77.9612 126.349 77.779 126.12 77.6432C125.891 77.5073 125.638 77.4394 125.359 77.4394C125.08 77.4394 124.824 77.5073 124.592 77.6432C124.363 77.779 124.181 77.9612 124.045 78.19C123.909 78.4187 123.842 78.6725 123.842 78.9513C123.842 79.2265 123.909 79.4784 124.045 79.7072C124.181 79.9359 124.363 80.12 124.592 80.2594C124.821 80.3952 125.075 80.4631 125.353 80.4631ZM130.994 81.5407C130.565 81.5407 130.206 81.4621 129.917 81.3048C129.627 81.144 129.407 80.9331 129.257 80.6722C129.111 80.4077 129.037 80.1182 129.037 79.8037C129.037 79.5106 129.089 79.2533 129.193 79.0317C129.297 78.8101 129.45 78.6224 129.654 78.4688C129.858 78.3115 130.108 78.1846 130.405 78.0881C130.662 78.0131 130.953 77.9469 131.278 77.8898C131.604 77.8326 131.945 77.779 132.302 77.7289C132.663 77.6789 133.021 77.6289 133.375 77.5788L132.967 77.804C132.974 77.3501 132.878 77.0141 132.678 76.7961C132.481 76.5745 132.142 76.4637 131.659 76.4637C131.355 76.4637 131.077 76.5352 130.823 76.6782C130.569 76.8175 130.392 77.0499 130.292 77.3751L129.247 77.0534C129.39 76.5566 129.661 76.1617 130.061 75.8686C130.465 75.5755 131.001 75.429 131.67 75.429C132.188 75.429 132.638 75.5184 133.021 75.6971C133.407 75.8722 133.689 76.151 133.868 76.5334C133.961 76.7228 134.018 76.923 134.039 77.1338C134.061 77.3447 134.072 77.5717 134.072 77.8147V81.3799H133.08V80.0557L133.273 80.2272C133.033 80.6704 132.728 81.001 132.356 81.219C131.988 81.4335 131.534 81.5407 130.994 81.5407ZM131.193 80.6239C131.511 80.6239 131.784 80.5685 132.013 80.4577C132.242 80.3434 132.426 80.1986 132.565 80.0235C132.705 79.8484 132.796 79.6661 132.839 79.4767C132.899 79.3051 132.933 79.1121 132.94 78.8977C132.951 78.6832 132.956 78.5117 132.956 78.383L133.321 78.517C132.967 78.5706 132.646 78.6189 132.356 78.6618C132.067 78.7047 131.804 78.7475 131.568 78.7904C131.336 78.8297 131.128 78.878 130.946 78.9352C130.792 78.9888 130.655 79.0531 130.533 79.1282C130.415 79.2032 130.321 79.2944 130.249 79.4016C130.181 79.5088 130.147 79.6393 130.147 79.793C130.147 79.9431 130.185 80.0825 130.26 80.2111C130.335 80.3362 130.449 80.4363 130.603 80.5114C130.757 80.5864 130.953 80.6239 131.193 80.6239ZM142.401 81.3799L142.406 77.7718C142.406 77.3537 142.299 77.0284 142.085 76.7961C141.87 76.5602 141.588 76.4423 141.238 76.4423C141.023 76.4423 140.827 76.4923 140.648 76.5924C140.473 76.6889 140.33 76.8354 140.219 77.032C140.112 77.225 140.058 77.468 140.058 77.7611L139.517 77.4877C139.51 77.0802 139.595 76.7228 139.774 76.4155C139.956 76.1081 140.203 75.8704 140.514 75.7024C140.825 75.5309 141.173 75.4451 141.559 75.4451C142.185 75.4451 142.669 75.6327 143.012 76.008C143.355 76.3833 143.527 76.8819 143.527 77.5038L143.521 81.3799H142.401ZM135.458 81.3799V75.5898H136.456V77.2625H136.584V81.3799H135.458ZM138.932 81.3799L138.938 77.7933C138.938 77.3715 138.831 77.0409 138.616 76.8015C138.405 76.562 138.121 76.4423 137.764 76.4423C137.41 76.4423 137.124 76.5638 136.906 76.8068C136.691 77.0499 136.584 77.3679 136.584 77.7611L136.048 77.418C136.048 77.0391 136.139 76.7014 136.322 76.4047C136.504 76.1081 136.75 75.874 137.061 75.7024C137.372 75.5309 137.724 75.4451 138.117 75.4451C138.528 75.4451 138.879 75.5327 139.168 75.7078C139.458 75.8793 139.678 76.1206 139.828 76.4315C139.981 76.7425 140.058 77.1035 140.058 77.5145L140.053 81.3799H138.932Z" fill="#939295"/>
<path d="M108.973 29.4487L108.977 28.634L111.723 26.1725C111.945 25.9768 112.096 25.7899 112.174 25.6118C112.256 25.4337 112.297 25.2556 112.297 25.0775C112.297 24.8526 112.247 24.6511 112.148 24.473C112.049 24.292 111.912 24.1489 111.736 24.0438C111.561 23.9387 111.36 23.8861 111.132 23.8861C110.898 23.8861 110.69 23.9416 110.506 24.0525C110.325 24.1606 110.183 24.3051 110.081 24.4862C109.979 24.6672 109.929 24.8628 109.932 25.0731H108.995C108.995 24.6643 109.087 24.3066 109.27 24C109.457 23.6905 109.713 23.4496 110.037 23.2773C110.361 23.1021 110.732 23.0145 111.149 23.0145C111.547 23.0145 111.903 23.105 112.218 23.286C112.534 23.4642 112.782 23.7094 112.963 24.0219C113.147 24.3343 113.239 24.6906 113.239 25.0906C113.239 25.3797 113.201 25.625 113.125 25.8264C113.049 26.0279 112.935 26.2148 112.783 26.3871C112.631 26.5594 112.442 26.7462 112.214 26.9477L110.094 28.8399L109.993 28.5771H113.239V29.4487H108.973Z" fill="#939295"/>
<path d="M44.8695 136.148L44.8739 135.333L47.6202 132.872C47.8421 132.676 47.9925 132.489 48.0713 132.311C48.1531 132.133 48.1939 131.955 48.1939 131.777C48.1939 131.552 48.1443 131.35 48.045 131.172C47.9457 130.991 47.8085 130.848 47.6333 130.743C47.4581 130.638 47.2566 130.585 47.0289 130.585C46.7953 130.585 46.5865 130.641 46.4025 130.752C46.2215 130.86 46.0799 131.004 45.9777 131.185C45.8755 131.366 45.8258 131.562 45.8287 131.772H44.8914C44.8914 131.363 44.9834 131.006 45.1674 130.699C45.3542 130.39 45.6097 130.149 45.9339 129.976C46.258 129.801 46.6288 129.714 47.0464 129.714C47.4435 129.714 47.7997 129.804 48.1151 129.985C48.4305 130.163 48.6787 130.409 48.8597 130.721C49.0437 131.033 49.1356 131.39 49.1356 131.79C49.1356 132.079 49.0977 132.324 49.0218 132.526C48.9458 132.727 48.832 132.914 48.6801 133.086C48.5283 133.259 48.3385 133.445 48.1107 133.647L45.9908 135.539L45.8901 135.276H49.1356V136.148H44.8695Z" fill="#939295"/>
<path d="M133.995 51.7635V50.6641H131.148V49.7969L133.198 45.4563H134.245L132.195 49.7969H133.995V48.0887H134.924V49.7969H135.55V50.6641H134.924V51.7635H133.995Z" fill="#939295"/>
<path d="M26.1772 113.842V112.742H23.3302V111.875L25.3801 107.535H26.4269L24.377 111.875H26.1772V110.167H27.1058V111.875H27.7321V112.742H27.1058V113.842H26.1772Z" fill="#939295"/>
<path d="M133.351 114.215C132.939 114.215 132.574 114.133 132.256 113.97C131.941 113.804 131.692 113.573 131.511 113.278C131.333 112.983 131.244 112.641 131.244 112.253C131.244 111.891 131.329 111.56 131.498 111.259C131.668 110.958 131.92 110.721 132.256 110.549L132.239 110.865C131.97 110.698 131.763 110.491 131.617 110.243C131.473 109.991 131.402 109.711 131.402 109.402C131.402 109.042 131.485 108.731 131.652 108.469C131.818 108.206 132.047 108.003 132.339 107.86C132.634 107.717 132.971 107.645 133.351 107.645C133.731 107.645 134.066 107.717 134.358 107.86C134.65 108.003 134.88 108.206 135.046 108.469C135.213 108.731 135.296 109.042 135.296 109.402C135.296 109.711 135.227 109.99 135.09 110.238C134.953 110.486 134.742 110.695 134.459 110.865L134.446 110.558C134.779 110.721 135.032 110.955 135.204 111.259C135.376 111.56 135.462 111.891 135.462 112.253C135.462 112.641 135.372 112.983 135.191 113.278C135.01 113.573 134.76 113.804 134.442 113.97C134.123 114.133 133.76 114.215 133.351 114.215ZM133.351 113.344C133.69 113.344 133.964 113.252 134.174 113.068C134.385 112.881 134.49 112.609 134.49 112.253C134.49 111.897 134.385 111.625 134.174 111.438C133.967 111.249 133.693 111.154 133.351 111.154C133.009 111.154 132.733 111.249 132.523 111.438C132.316 111.625 132.212 111.897 132.212 112.253C132.212 112.609 132.317 112.881 132.528 113.068C132.738 113.252 133.012 113.344 133.351 113.344ZM133.351 110.278C133.64 110.278 133.874 110.206 134.052 110.063C134.233 109.917 134.323 109.697 134.323 109.402C134.323 109.107 134.233 108.886 134.052 108.74C133.874 108.591 133.64 108.517 133.351 108.517C133.062 108.517 132.827 108.591 132.646 108.74C132.465 108.886 132.374 109.107 132.374 109.402C132.374 109.697 132.465 109.917 132.646 110.063C132.827 110.206 133.062 110.278 133.351 110.278Z" fill="#939295"/>
<path d="M25.5246 51.6509C25.1129 51.6509 24.7479 51.5691 24.4296 51.4056C24.1142 51.2392 23.866 51.0085 23.685 50.7136C23.5069 50.4187 23.4178 50.077 23.4178 49.6887C23.4178 49.3266 23.5025 48.9952 23.6719 48.6944C23.8412 48.3936 24.0938 48.1571 24.4296 47.9848L24.4121 48.3002C24.1434 48.1338 23.9361 47.9264 23.7901 47.6782C23.647 47.4271 23.5755 47.1468 23.5755 46.8373C23.5755 46.4781 23.6587 46.1671 23.8252 45.9043C23.9916 45.6415 24.2208 45.4386 24.5128 45.2955C24.8077 45.1524 25.145 45.0809 25.5246 45.0809C25.9042 45.0809 26.24 45.1524 26.532 45.2955C26.824 45.4386 27.0532 45.6415 27.2197 45.9043C27.3861 46.1671 27.4693 46.4781 27.4693 46.8373C27.4693 47.1468 27.4007 47.4257 27.2635 47.6739C27.1262 47.9221 26.916 48.1308 26.6327 48.3002L26.6196 47.9936C26.9525 48.1571 27.2051 48.3907 27.3773 48.6944C27.5496 48.9952 27.6358 49.3266 27.6358 49.6887C27.6358 50.077 27.5452 50.4187 27.3642 50.7136C27.1832 51.0085 26.9335 51.2392 26.6152 51.4056C26.2969 51.5691 25.9334 51.6509 25.5246 51.6509ZM25.5246 50.7793C25.8633 50.7793 26.1378 50.6873 26.348 50.5033C26.5583 50.3165 26.6634 50.0449 26.6634 49.6887C26.6634 49.3324 26.5583 49.0609 26.348 48.874C26.1407 48.6842 25.8662 48.5893 25.5246 48.5893C25.183 48.5893 24.907 48.6842 24.6968 48.874C24.4895 49.0609 24.3858 49.3324 24.3858 49.6887C24.3858 50.0449 24.4909 50.3165 24.7012 50.5033C24.9114 50.6873 25.1859 50.7793 25.5246 50.7793ZM25.5246 47.7133C25.8137 47.7133 26.0473 47.6417 26.2254 47.4987C26.4064 47.3527 26.497 47.1322 26.497 46.8373C26.497 46.5424 26.4064 46.3219 26.2254 46.1759C26.0473 46.027 25.8137 45.9525 25.5246 45.9525C25.2355 45.9525 25.0005 46.027 24.8194 46.1759C24.6384 46.3219 24.5479 46.5424 24.5479 46.8373C24.5479 47.1322 24.6384 47.3527 24.8194 47.4987C25.0005 47.6417 25.2355 47.7133 25.5246 47.7133Z" fill="#939295"/>
<path d="M108.381 136.396V131.096L107.194 131.819V130.799L108.381 130.089H109.314V136.396H108.381ZM113.176 136.528C112.747 136.528 112.367 136.434 112.037 136.247C111.707 136.057 111.448 135.798 111.258 135.468C111.071 135.138 110.977 134.758 110.977 134.329V132.156C110.977 131.727 111.071 131.348 111.258 131.018C111.448 130.688 111.707 130.429 112.037 130.242C112.367 130.053 112.747 129.958 113.176 129.958C113.605 129.958 113.985 130.053 114.315 130.242C114.645 130.429 114.903 130.688 115.09 131.018C115.28 131.348 115.375 131.727 115.375 132.156V134.329C115.375 134.758 115.28 135.138 115.09 135.468C114.903 135.798 114.645 136.057 114.315 136.247C113.985 136.434 113.605 136.528 113.176 136.528ZM113.176 135.652C113.41 135.652 113.621 135.596 113.811 135.485C114.004 135.371 114.157 135.219 114.271 135.03C114.385 134.837 114.442 134.622 114.442 134.386V132.091C114.442 131.857 114.385 131.645 114.271 131.456C114.157 131.263 114.004 131.111 113.811 131C113.621 130.886 113.41 130.829 113.176 130.829C112.943 130.829 112.729 130.886 112.537 131C112.347 131.111 112.195 131.263 112.081 131.456C111.967 131.645 111.91 131.857 111.91 132.091V134.386C111.91 134.622 111.967 134.837 112.081 135.03C112.195 135.219 112.347 135.371 112.537 135.485C112.729 135.596 112.943 135.652 113.176 135.652Z" fill="#939295"/>
<path d="M45.377 29.2091V23.9093L44.19 24.632V23.6115L45.377 22.9019H46.3099V29.2091H45.377ZM50.172 29.3405C49.7427 29.3405 49.3631 29.2471 49.0332 29.0602C48.7032 28.8704 48.4433 28.6105 48.2535 28.2805C48.0666 27.9506 47.9732 27.571 47.9732 27.1417V24.9693C47.9732 24.54 48.0666 24.1604 48.2535 23.8305C48.4433 23.5005 48.7032 23.2421 49.0332 23.0552C49.3631 22.8654 49.7427 22.7705 50.172 22.7705C50.6012 22.7705 50.9808 22.8654 51.3108 23.0552C51.6407 23.2421 51.8991 23.5005 52.086 23.8305C52.2758 24.1604 52.3707 24.54 52.3707 24.9693V27.1417C52.3707 27.571 52.2758 27.9506 52.086 28.2805C51.8991 28.6105 51.6407 28.8704 51.3108 29.0602C50.9808 29.2471 50.6012 29.3405 50.172 29.3405ZM50.172 28.4645C50.4056 28.4645 50.6173 28.409 50.8071 28.2981C50.9998 28.1842 51.1531 28.0323 51.267 27.8425C51.3808 27.6498 51.4378 27.4352 51.4378 27.1987V24.9036C51.4378 24.67 51.3808 24.4583 51.267 24.2685C51.1531 24.0757 50.9998 23.9239 50.8071 23.8129C50.6173 23.6991 50.4056 23.6421 50.172 23.6421C49.9384 23.6421 49.7252 23.6991 49.5325 23.8129C49.3427 23.9239 49.1908 24.0757 49.077 24.2685C48.9631 24.4583 48.9061 24.67 48.9061 24.9036V27.1987C48.9061 27.4352 48.9631 27.6498 49.077 27.8425C49.1908 28.0323 49.3427 28.1842 49.5325 28.2981C49.7252 28.409 49.9384 28.4645 50.172 28.4645Z" fill="#939295"/>
<path d="M16.4039 81.699C15.9035 81.699 15.4532 81.5811 15.0529 81.3452C14.6526 81.1057 14.3345 80.7787 14.0986 80.3641C13.8663 79.9495 13.7502 79.4777 13.7502 78.9488V76.488C13.7502 75.9269 13.8663 75.4336 14.0986 75.0083C14.3345 74.583 14.6598 74.2524 15.0743 74.0165C15.4925 73.7806 15.9732 73.6627 16.5165 73.6627C16.9239 73.6627 17.3064 73.7395 17.6638 73.8932C18.0212 74.0469 18.3303 74.2756 18.5912 74.5794L17.771 75.3461C17.6245 75.1567 17.4404 75.0065 17.2188 74.8958C17.0008 74.7814 16.7667 74.7242 16.5165 74.7242C16.1948 74.7242 15.9125 74.801 15.6694 74.9547C15.4264 75.1048 15.2352 75.3032 15.0958 75.5498C14.96 75.7964 14.8921 76.0609 14.8921 76.3433V77.7586L14.6723 77.512C14.8939 77.2225 15.1691 76.9937 15.4979 76.8258C15.8267 76.6578 16.1787 76.5738 16.554 76.5738C17.0329 76.5738 17.46 76.6864 17.8353 76.9115C18.2142 77.1331 18.5108 77.4351 18.7253 77.8176C18.9433 78.2 19.0523 78.6307 19.0523 79.1096C19.0523 79.5921 18.9308 80.0299 18.6877 80.4231C18.4483 80.8126 18.1266 81.1236 17.7227 81.3559C17.3224 81.5846 16.8828 81.699 16.4039 81.699ZM16.4039 80.6214C16.6827 80.6214 16.9364 80.5535 17.1652 80.4177C17.3939 80.2819 17.5762 80.0996 17.712 79.8709C17.8478 79.6421 17.9157 79.3884 17.9157 79.1096C17.9157 78.8308 17.8478 78.5771 17.712 78.3483C17.5798 78.1196 17.3993 77.9373 17.1705 77.8015C16.9418 77.6657 16.688 77.5978 16.4093 77.5978C16.1305 77.5978 15.8749 77.6657 15.6426 77.8015C15.4139 77.9373 15.2316 78.1196 15.0958 78.3483C14.96 78.5771 14.8921 78.8308 14.8921 79.1096C14.8921 79.3848 14.96 79.6368 15.0958 79.8655C15.2316 80.0942 15.4139 80.2783 15.6426 80.4177C15.8714 80.5535 16.1251 80.6214 16.4039 80.6214ZM23.1278 81.699C22.5738 81.699 22.1091 81.565 21.7339 81.2969C21.3586 81.0253 21.0744 80.659 20.8814 80.1979C20.6884 79.7368 20.5919 79.2168 20.5919 78.6378C20.5919 78.0588 20.6867 77.5388 20.8761 77.0777C21.0691 76.6167 21.3514 76.2539 21.7231 75.9894C22.0984 75.7214 22.5595 75.5873 23.1063 75.5873C23.6496 75.5873 24.1178 75.7214 24.5109 75.9894C24.9076 76.2539 25.2132 76.6167 25.4277 77.0777C25.6421 77.5352 25.7493 78.0552 25.7493 78.6378C25.7493 79.2168 25.6421 79.7386 25.4277 80.2033C25.2168 80.6643 24.9148 81.0289 24.5216 81.2969C24.1321 81.565 23.6674 81.699 23.1278 81.699ZM20.4043 84.1115V75.7482H21.4015V79.9138H21.5301V84.1115H20.4043ZM22.9723 80.6858C23.3297 80.6858 23.6246 80.5946 23.8569 80.4123C24.0928 80.2301 24.2679 79.9852 24.3823 79.6779C24.5002 79.3669 24.5592 79.0202 24.5592 78.6378C24.5592 78.259 24.5002 77.9158 24.3823 77.6085C24.2679 77.3011 24.091 77.0563 23.8515 76.874C23.612 76.6917 23.3065 76.6006 22.9348 76.6006C22.5845 76.6006 22.295 76.6864 22.0663 76.8579C21.8411 77.0295 21.6731 77.2689 21.5623 77.5763C21.4551 77.8837 21.4015 78.2375 21.4015 78.6378C21.4015 79.0381 21.4551 79.3919 21.5623 79.6993C21.6695 80.0067 21.8393 80.2479 22.0716 80.4231C22.3039 80.5982 22.6042 80.6858 22.9723 80.6858ZM33.8703 81.5382L33.8757 77.9301C33.8757 77.512 33.7685 77.1867 33.554 76.9544C33.3396 76.7185 33.0572 76.6006 32.707 76.6006C32.4925 76.6006 32.296 76.6506 32.1173 76.7507C31.9421 76.8472 31.7992 76.9937 31.6884 77.1903C31.5812 77.3833 31.5275 77.6263 31.5275 77.9194L30.9861 77.646C30.9789 77.2386 31.0647 76.8812 31.2434 76.5738C31.4257 76.2664 31.6723 76.0287 31.9832 75.8608C32.2942 75.6892 32.6427 75.6034 33.0287 75.6034C33.6541 75.6034 34.1384 75.7911 34.4815 76.1663C34.8246 76.5416 34.9962 77.0402 34.9962 77.6621L34.9908 81.5382H33.8703ZM26.9277 81.5382V75.7482H27.9249V77.4208H28.0535V81.5382H26.9277ZM30.4017 81.5382L30.4071 77.9516C30.4071 77.5298 30.2998 77.1992 30.0854 76.9598C29.8745 76.7203 29.5904 76.6006 29.233 76.6006C28.8791 76.6006 28.5932 76.7221 28.3752 76.9651C28.1608 77.2082 28.0535 77.5263 28.0535 77.9194L27.5174 77.5763C27.5174 77.1975 27.6086 76.8597 27.7908 76.5631C27.9731 76.2664 28.2197 76.0323 28.5307 75.8608C28.8416 75.6892 29.1937 75.6034 29.5868 75.6034C29.9978 75.6034 30.3481 75.691 30.6376 75.8661C30.9271 76.0377 31.1469 76.2789 31.297 76.5899C31.4507 76.9008 31.5275 77.2618 31.5275 77.6728L31.5222 81.5382H30.4017Z" fill="#939295"/>
</svg>
